<svg xmlns="http://www.w3.org/2000/svg" xml:space="preserve" viewBox="0 0 110 128.9"><path fill="#FFE473" d="M19.3 0h85v85h-85z"></path><path fill="none" stroke="#333" stroke-linecap="square" stroke-miterlimit="10" stroke-width="6.323" d="M8.8 15.1h79.4v79.4H8.8z"></path><path fill="#333" d="M41.5 61.5v14.6H33V34.6h16.2c3.1 0 5.9.6 8.2 1.7 2.4 1.1 4.2 2.8 5.5 4.9 1.3 2.1 1.9 4.5 1.9 7.2 0 4.1-1.4 7.3-4.2 9.6-2.8 2.3-6.6 3.5-11.5 3.5h-7.6zm0-6.9h7.6c2.3 0 4-.5 5.2-1.6 1.2-1.1 1.8-2.6 1.8-4.6 0-2-.6-3.7-1.8-4.9-1.2-1.3-2.8-1.9-5-1.9h-7.8v13zM24.1 31.2h-1.6v-6.1l-1.5.6v-1.3l2.9-1.2h.2v8zM26.5 27.3l.4-4.1h3.9v1.3h-2.6l-.2 1.8c.3-.2.6-.3.9-.3.7 0 1.2.2 1.5.7.4.5.5 1.1.5 2 0 .8-.2 1.4-.6 1.9-.4.5-1 .7-1.7.7-.4 0-.8-.1-1.2-.3-.4-.2-.6-.5-.8-.8-.2-.4-.3-.8-.3-1.2h1.5c0 .3.1.6.2.8.1.2.3.3.5.3.3 0 .5-.1.6-.4.1-.2.2-.6.2-1.1 0-.5-.1-.8-.2-1-.2-.2-.4-.4-.7-.4-.3 0-.5.1-.7.3l-.1.1-1.1-.3z"></path></svg>