<svg xmlns="http://www.w3.org/2000/svg" xml:space="preserve" viewBox="0 0 110 128.9"><path fill="#99F5DC" d="M19.4 0h85v85h-85z"></path><path fill="none" stroke="#333" stroke-linecap="square" stroke-miterlimit="10" stroke-width="6.321" d="M8.8 15.1h79.4v79.4H8.8z"></path><path fill="#333" d="m46 59.5-4.4 4.8v11.8H33V34.6h8.5v18.8l3.8-5.2 10.6-13.6h10.5L51.7 53.1l15.1 23H56.7L46 59.5zM24.1 30.5h-1.6v-6.1L21 25v-1.3l2.9-1.2h.2v8zM29.4 27.5c-.3.3-.7.5-1.1.5-.6 0-1.1-.2-1.4-.7-.3-.5-.5-1.1-.5-2 0-.5.1-1 .3-1.4.2-.4.5-.8.8-1 .4-.2.7-.4 1.2-.4.4 0 .9.1 1.2.4.4.3.6.7.8 1.1.2.5.3 1.1.3 1.7v.6c0 1.4-.3 2.4-.9 3.2-.6.8-1.4 1.2-2.5 1.2h-.2v-1.3h.1c.6 0 1.1-.2 1.4-.5.2-.4.4-.8.5-1.4zm-.7-.8c.3 0 .5-.2.7-.6v-.7c0-.5-.1-.9-.2-1.2-.1-.3-.3-.4-.6-.4-.2 0-.4.1-.5.4-.1.3-.2.7-.2 1.1 0 .5.1.8.2 1.1.2.2.4.3.6.3z"></path></svg>